<svg width="14" height="14" viewBox="0 0 14 14" fill="none" xmlns="http://www.w3.org/2000/svg">
<path d="M1.37016 5.17189C0.202505 8.43312 1.88963 12.0301 5.13265 13.1909C7.55372 14.0577 10.2221 13.364 11.9301 11.4195C11.9716 11.3749 12.0038 11.3224 12.0248 11.2652C12.0458 11.2079 12.0551 11.1471 12.0522 11.0862C12.0492 11.0252 12.0341 10.9655 12.0078 10.9106C11.9814 10.8556 11.9443 10.8064 11.8987 10.766C11.853 10.7256 11.7998 10.6947 11.742 10.6752C11.6842 10.6557 11.6231 10.6479 11.5623 10.6524C11.5015 10.6568 11.4422 10.6734 11.3879 10.7012C11.3336 10.7289 11.2854 10.7672 11.2462 10.8139C9.78895 12.471 7.5098 13.0634 5.44208 12.3231C2.67279 11.3315 1.23157 8.25978 2.22825 5.47604C3.22492 2.69229 6.28835 1.23356 9.05763 2.22509C9.99517 2.56026 10.8193 3.15283 11.4355 3.93487C11.4469 3.94883 11.4596 3.96176 11.4733 3.97351L9.98592 3.97977C9.87808 3.98046 9.77392 4.019 9.69159 4.08866C9.60927 4.15832 9.55402 4.25467 9.53548 4.3609C9.51695 4.46713 9.5363 4.5765 9.59017 4.66992C9.64404 4.76334 9.729 4.83488 9.83023 4.87205C9.87999 4.88928 9.93229 4.89802 9.98495 4.89791L12.5427 4.8879C12.6028 4.88784 12.6623 4.87585 12.7177 4.85263C12.7732 4.82942 12.8235 4.79543 12.8657 4.75265C12.9512 4.66577 12.9994 4.54896 13 4.42709V1.85936C13.0002 1.79931 12.9884 1.73982 12.9655 1.68432C12.9426 1.62883 12.9089 1.57842 12.8664 1.53601C12.8238 1.49359 12.7733 1.46002 12.7178 1.43722C12.6622 1.41441 12.6027 1.40283 12.5427 1.40315C12.421 1.40399 12.3047 1.45292 12.219 1.53926C12.1333 1.62559 12.0853 1.74232 12.0853 1.86395L12.0846 3.28849C11.371 2.41089 10.4308 1.74533 9.36595 1.36395C6.12418 0.203242 2.53601 1.91135 1.37016 5.17189Z" fill="#0475CA" stroke="#0475CA" stroke-width="0.5"/>
</svg>
