<svg width="14" height="14" fill="none" xmlns="http://www.w3.org/2000/svg"><path d="M1.37 5.172c-1.167 3.261.52 6.858 3.763 8.019a6.215 6.215 0 0 0 6.797-1.772.459.459 0 0 0-.188-.744.457.457 0 0 0-.496.139 5.31 5.31 0 0 1-5.804 1.51c-2.77-.992-4.21-4.064-3.214-6.848.997-2.784 4.06-4.242 6.83-3.25a5.298 5.298 0 0 1 2.377 1.709.306.306 0 0 0 .038.039l-1.487.006a.46.46 0 0 0-.001.918l2.558-.01a.454.454 0 0 0 .323-.135.467.467 0 0 0 .134-.326V1.86a.455.455 0 0 0-.781-.32.46.46 0 0 0-.134.325v1.424a6.197 6.197 0 0 0-2.72-1.924c-3.24-1.16-6.829.547-7.995 3.808z" fill="#0475CA" stroke="#0475CA" stroke-width=".5"/></svg>